<?xml version="1.0" encoding="utf-8"?>
<!-- Generator: Adobe Illustrator 16.0.0, SVG Export Plug-In . SVG Version: 6.00 Build 0)  -->
<!DOCTYPE svg PUBLIC "-//W3C//DTD SVG 1.1//EN" "http://www.w3.org/Graphics/SVG/1.1/DTD/svg11.dtd">
<svg version="1.1" id="Layer_1" xmlns="http://www.w3.org/2000/svg" xmlns:xlink="http://www.w3.org/1999/xlink" x="0px" y="0px"
	 width="120px" height="60px" viewBox="0 0 120 60" enable-background="new 0 0 120 60" xml:space="preserve">
<path d="M120,0h-12v2h12V0L120,0z M96,0H84v2h12V0L96,0z M72,0H60v2h12V0L72,0z M48,0H36v2h12V0L48,0z M24,0H12v2h12V0L24,0z M2,0H0
	v12h2V0L2,0z M2,24H0v12h2V24L2,24z M2,48H0v12h2V48L2,48z M24,58H12v2h12V58L24,58z M48,58H36v2h12V58L48,58z M72,58H60v2h12V58
	L72,58z M96,58H84v2h12V58L96,58z M120,58h-12v2h12V58L120,58z M120,36h-2v12h2V36L120,36z M120,12h-2v12h2V12L120,12z"/>
<g>
	<path d="M61.921,25.727c0-1.089-0.955-1.778-2.399-1.778c-1.422,0-2.511,0.622-3.223,1.645l-2.688-1.578
		c1.2-1.822,3.289-2.978,6.29-2.978c3.333,0,5.644,1.489,5.644,4.111c0,3.556-3.733,3.956-3.733,6.312h-3.355
		C58.455,28.349,61.921,27.66,61.921,25.727z M58.01,35.016c0-1.133,0.89-1.978,2.134-1.978c1.244,0,2.132,0.845,2.132,1.978
		c0,1.111-0.888,2.021-2.132,2.021C58.9,37.037,58.01,36.127,58.01,35.016z"/>
</g>
</svg>
